<svg version="1.2" xmlns="http://www.w3.org/2000/svg" viewBox="0 0 512 512" width="512" height="512">
	<title>Nouveau projet</title>
	<style>
		.s0 { fill: #ffffff } 
		.s1 { fill: #0b1f3a } 
	</style>
	<path id="Forme 1" fill-rule="evenodd" class="s0" d="m256 512c-141.6 0-256-114.4-256-256 0-141.6 114.4-256 256-256 141.6 0 256 114.4 256 256 0 141.6-114.4 256-256 256z"/>
	<path id="{c}" class="s1" aria-label="{c}"  d="m172 378.8h-18.3q-26.1 0-39.6-13.5-13.2-13.5-10.8-40.5l3.3-36.3q0.9-9.3-2.4-13.2-3-3.9-11.4-3.9h-8.4v-33h8.4q8.4 0 11.4-3.9 3.3-3.9 2.4-13.2l-3.3-35.1q-2.7-26.7 10.8-40.2 13.5-13.8 39.6-13.8h18.3v33.6h-11.4q-12.6 0-16.8 5.1-4.2 5.1-3 15.6l2.4 29.7q1.2 12.6-1.2 21.3-2.1 8.7-9.9 14.4-7.5 5.7-21.9 9.3v-11.4q14.4 3 21.9 8.7 7.8 5.4 9.9 14.1 2.4 8.7 1.2 21.3l-2.4 30.6q-0.9 10.2 3 15.6 4.2 5.1 16.8 5.1h11.4zm96.3-25.5q-22.5 0-40.8-9.9-18.3-9.9-28.8-27.3-10.5-17.4-10.5-39 0-21.9 10.5-39 10.8-17.4 29.1-27.3 18.3-9.9 41.1-9.9 17.1 0 31.2 6 14.4 5.7 25.5 17.4l-29.4 29.4q-5.1-5.7-12-8.4-6.6-2.7-15.3-2.7-9.9 0-17.7 4.5-7.5 4.2-12 12-4.2 7.5-4.2 17.7 0 10.2 4.2 18 4.5 7.8 12.3 12.3 7.8 4.5 17.4 4.5 9 0 15.9-3 7.2-3.3 12.3-9l29.1 29.4q-11.4 12-25.8 18.3-14.4 6-32.1 6zm88.5 25.5h-18.3v-33.6h11.4q12.6 0 16.5-5.1 4.2-5.4 3.3-15.6l-2.4-30.6q-1.2-12.6 0.9-21.3 2.4-8.7 9.9-14.1 7.8-5.7 22.2-8.7v11.4q-14.4-3.6-22.2-9.3-7.5-5.7-9.9-14.4-2.1-8.7-0.9-21.3l2.4-29.7q1.2-10.5-3-15.6-4.2-5.1-16.8-5.1h-11.4v-33.6h18.3q26.1 0 39.6 13.8 13.5 13.5 10.8 40.2l-3.3 35.1q-0.9 9.3 2.1 13.2 3.3 3.9 11.7 3.9h8.4v33h-8.4q-8.4 0-11.7 3.9-3 3.9-2.1 13.2l3.3 36.3q2.7 27-10.8 40.5-13.5 13.5-39.6 13.5z"/>
</svg>